<svg xmlns="http://www.w3.org/2000/svg" xmlns:xlink="http://www.w3.org/1999/xlink" width="520.908" height="82.52" viewBox="0 0 520.908 82.52">
  <defs>
    <clipPath id="clip-path">
      <path id="パス_9000" data-name="パス 9000" d="M-214.775-64.7H-245v18.115h29.346v10.693H-245v25.2h30.225V0h-41.6V-75.391h41.6Zm21.75-10.693,20.85,52.246,21.143-52.246h12.451L-172.42,5.664l-33.057-81.055Zm118.3,11.23-9.229,5.469q-2.588-4.492-4.932-5.859a11.5,11.5,0,0,0-6.3-1.562,11.635,11.635,0,0,0-7.861,2.686,8.324,8.324,0,0,0-3.125,6.641q0,5.518,8.2,8.887l7.52,3.076q9.18,3.711,13.428,9.058a20.415,20.415,0,0,1,4.248,13.11A23.034,23.034,0,0,1-79.7-5.469,23.8,23.8,0,0,1-97.035,1.367q-9.814,0-16.211-5.811-6.3-5.811-7.861-16.357l11.523-2.539q.781,6.641,2.734,9.18,3.516,4.883,10.254,4.883a11.9,11.9,0,0,0,8.838-3.564,12.331,12.331,0,0,0,3.516-9.033,12.676,12.676,0,0,0-.61-4.028,10.221,10.221,0,0,0-1.9-3.369A15.221,15.221,0,0,0-90.1-32.153a32.222,32.222,0,0,0-4.883-2.563l-7.275-3.027q-15.479-6.543-15.479-19.141a18.159,18.159,0,0,1,6.494-14.209q6.494-5.762,16.162-5.762Q-82.045-76.855-74.721-64.16ZM-45.109-37.3V0H-56.1V-37.3h-4.687V-47.559H-56.1V-64.99h10.986v17.432h8.545V-37.3ZM9.844-47.559H20.879V0H9.844V-4.98Q3.057,1.367-4.756,1.367A21.034,21.034,0,0,1-21.064-5.762q-6.4-7.275-6.4-18.164,0-10.693,6.4-17.822A20.619,20.619,0,0,1-5.049-48.877q8.3,0,14.893,6.836ZM-16.23-23.926q0,6.836,3.662,11.133A12,12,0,0,0-3.1-8.447a12.608,12.608,0,0,0,9.863-4.2,16.262,16.262,0,0,0,3.76-11.035,16.262,16.262,0,0,0-3.76-11.035A12.431,12.431,0,0,0-3-38.965a12.145,12.145,0,0,0-9.473,4.3A15.84,15.84,0,0,0-16.23-23.926ZM37.746-47.559H48.732v4.248A20.979,20.979,0,0,1,54.1-47.656a12.318,12.318,0,0,1,5.664-1.221,17.744,17.744,0,0,1,9.082,2.832L63.82-35.986a10.489,10.489,0,0,0-6.1-2.246q-8.984,0-8.984,13.574V0H37.746ZM93.09-37.3V0H82.1V-37.3H77.416V-47.559H82.1V-64.99H93.09v17.432h8.545V-37.3ZM130.064,0V-75.391h11.328a49.6,49.6,0,0,1,12.061,1.172,18.121,18.121,0,0,1,7.666,3.955,20.523,20.523,0,0,1,5.029,7.178,21.718,21.718,0,0,1,1.9,8.789,17.812,17.812,0,0,1-6.2,13.721,18.219,18.219,0,0,1,9.473,7.178,20.244,20.244,0,0,1,3.516,11.816,20.08,20.08,0,0,1-6.25,14.941,20.514,20.514,0,0,1-8.447,5.225A49.134,49.134,0,0,1,147.3,0Zm11.377-43.018h3.564q6.348,0,9.3-2.808t2.954-8.276q0-5.322-3.027-8.081t-8.789-2.759h-4Zm0,32.324h7.031q7.715,0,11.328-3.027a10.467,10.467,0,0,0,3.809-8.3,10.634,10.634,0,0,0-3.662-8.2Q156.383-33.5,147.2-33.5h-5.762Zm59.641-36.865V0H190.1V-47.559ZM188.436-67.334a6.805,6.805,0,0,1,2.1-4.98,6.861,6.861,0,0,1,5.029-2.1,6.918,6.918,0,0,1,5.078,2.1,6.758,6.758,0,0,1,2.1,5.029,6.918,6.918,0,0,1-2.1,5.078,6.758,6.758,0,0,1-5.029,2.1,6.918,6.918,0,0,1-5.078-2.1A6.975,6.975,0,0,1,188.436-67.334ZM233.77-10.352h28.271V0H211.992L242.8-37.3H218.535V-47.559h46Z" transform="translate(553 284)" fill="#383838"/>
    </clipPath>
    <linearGradient id="linear-gradient" x2="1" y2="1" gradientUnits="objectBoundingBox">
      <stop offset="0" stop-color="#70ccf5"/>
      <stop offset="0.195" stop-color="#72dba2"/>
      <stop offset="0.83" stop-color="#7acc88"/>
      <stop offset="0.924" stop-color="#c8be40"/>
      <stop offset="1" stop-color="#dbba2e"/>
    </linearGradient>
  </defs>
  <g id="title-logo" transform="translate(-296.623 -207.145)">
    <g id="マスクグループ_14" data-name="マスクグループ 14" clip-path="url(#clip-path)">
      <rect id="長方形_23353" data-name="長方形 23353" width="522" height="120" transform="translate(296 185)" fill="url(#linear-gradient)"/>
    </g>
  </g>
</svg>
