<svg xmlns="http://www.w3.org/2000/svg" width="520.908" height="82.52"><defs><linearGradient id="b" x1="0" y1="0" x2="cos(99deg)" y2="sin(99deg)"><stop offset="0" stop-color="#70ccf5"/><stop offset=".2" stop-color="#72dba2"/><stop offset=".83" stop-color="#7acc88"/><stop offset=".92" stop-color="#c8be40"/><stop offset="1" stop-color="#dbba2e"/></linearGradient><clipPath id="a"><path data-name="パス 9000" d="M-214.775-64.7H-245v18.115h29.346v10.693H-245v25.2h30.225V0h-41.6v-75.391h41.6zm21.75-10.693l20.85 52.246 21.143-52.246h12.451L-172.42 5.664l-33.057-81.055zm118.3 11.23l-9.229 5.469q-2.588-4.492-4.932-5.859a11.5 11.5 0 00-6.3-1.562 11.635 11.635 0 00-7.861 2.686 8.324 8.324 0 00-3.125 6.641q0 5.518 8.2 8.887l7.52 3.076q9.18 3.711 13.428 9.058a20.415 20.415 0 014.248 13.11A23.034 23.034 0 01-79.7-5.469a23.8 23.8 0 01-17.335 6.836q-9.814 0-16.211-5.811-6.3-5.811-7.861-16.357l11.523-2.539q.781 6.641 2.734 9.18 3.516 4.883 10.254 4.883a11.9 11.9 0 008.838-3.564 12.331 12.331 0 003.516-9.033 12.676 12.676 0 00-.61-4.028 10.221 10.221 0 00-1.9-3.369 15.221 15.221 0 00-3.348-2.882 32.222 32.222 0 00-4.883-2.563l-7.275-3.027q-15.479-6.543-15.479-19.141a18.159 18.159 0 016.494-14.209q6.494-5.762 16.162-5.762 13.036 0 20.36 12.695zM-45.109-37.3V0H-56.1v-37.3h-4.687v-10.259h4.687V-64.99h10.986v17.432h8.545V-37.3zM9.844-47.559h11.035V0H9.844v-4.98q-6.787 6.347-14.6 6.347a21.034 21.034 0 01-16.308-7.129q-6.4-7.275-6.4-18.164 0-10.693 6.4-17.822a20.619 20.619 0 0116.015-7.129q8.3 0 14.893 6.836zM-16.23-23.926q0 6.836 3.662 11.133A12 12 0 00-3.1-8.447a12.608 12.608 0 009.863-4.2 16.262 16.262 0 003.76-11.035 16.262 16.262 0 00-3.76-11.035A12.431 12.431 0 00-3-38.965a12.145 12.145 0 00-9.473 4.3 15.84 15.84 0 00-3.757 10.739zm53.976-23.633h10.986v4.248a20.979 20.979 0 015.368-4.345 12.318 12.318 0 015.664-1.221 17.744 17.744 0 019.082 2.832L63.82-35.986a10.489 10.489 0 00-6.1-2.246q-8.984 0-8.984 13.574V0h-10.99zM93.09-37.3V0H82.1v-37.3h-4.684v-10.259H82.1V-64.99h10.99v17.432h8.545V-37.3zM130.064 0v-75.391h11.328a49.6 49.6 0 0112.061 1.172 18.121 18.121 0 017.666 3.955 20.523 20.523 0 015.029 7.178 21.718 21.718 0 011.9 8.789 17.812 17.812 0 01-6.2 13.721 18.219 18.219 0 019.473 7.178 20.244 20.244 0 013.516 11.816 20.08 20.08 0 01-6.25 14.941 20.514 20.514 0 01-8.447 5.225A49.134 49.134 0 01147.3 0zm11.377-43.018h3.564q6.348 0 9.3-2.808t2.954-8.276q0-5.322-3.027-8.081t-8.789-2.759h-4zm0 32.324h7.031q7.715 0 11.328-3.027a10.467 10.467 0 003.809-8.3 10.634 10.634 0 00-3.662-8.2Q156.383-33.5 147.2-33.5h-5.762zm59.641-36.865V0H190.1v-47.559zm-12.646-19.775a6.805 6.805 0 012.1-4.98 6.861 6.861 0 015.029-2.1 6.918 6.918 0 015.078 2.1 6.758 6.758 0 012.1 5.029 6.918 6.918 0 01-2.1 5.078 6.758 6.758 0 01-5.029 2.1 6.918 6.918 0 01-5.078-2.1 6.975 6.975 0 01-2.1-5.127zm45.334 56.982h28.271V0h-50.049L242.8-37.3h-24.265v-10.259h46z" transform="translate(553 284)" fill="#383838"/></clipPath></defs><g data-name="マスクグループ 14" clip-path="url(#a)" transform="translate(-296.623 -207.145)"><path data-name="長方形 23353" transform="translate(296 185)" fill="url(#b)" d="M0 0h522v120H0z"/></g></svg>