<svg xmlns="http://www.w3.org/2000/svg" width="43.909" height="56.798" viewBox="0 0 43.909 56.798">
  <path id="パス_9185" data-name="パス 9185" d="M-12.419-12.832l-1.846,1.094a3.172,3.172,0,0,0-.986-1.172,2.3,2.3,0,0,0-1.26-.312,2.327,2.327,0,0,0-1.572.537,1.665,1.665,0,0,0-.625,1.328q0,1.1,1.641,1.777l1.5.615a6.421,6.421,0,0,1,2.686,1.812,4.083,4.083,0,0,1,.85,2.622,4.607,4.607,0,0,1-1.387,3.438A4.76,4.76,0,0,1-16.881.273,4.638,4.638,0,0,1-20.124-.889,5.351,5.351,0,0,1-21.7-4.16l2.3-.508a3.92,3.92,0,0,0,.547,1.836,2.369,2.369,0,0,0,2.051.977,2.38,2.38,0,0,0,1.768-.713,2.466,2.466,0,0,0,.7-1.807,2.535,2.535,0,0,0-.122-.806,2.044,2.044,0,0,0-.381-.674,3.044,3.044,0,0,0-.669-.576,6.444,6.444,0,0,0-.977-.513l-1.455-.605q-3.1-1.309-3.1-3.828a3.632,3.632,0,0,1,1.3-2.842,4.693,4.693,0,0,1,3.232-1.152A4.513,4.513,0,0,1-12.419-12.832Zm8.178-.107V0H-6.516V-12.939H-9.983v-2.139h9.2v2.139Zm14.409,0H4.123v3.623H9.992v2.139H4.123v5.039h6.045V0H1.848V-15.078h8.32Zm5.864,6.816V0H13.756V-15.078h2.578a11.628,11.628,0,0,1,2.861.264,3.837,3.837,0,0,1,1.719,1,4.291,4.291,0,0,1,1.3,3.2,4.133,4.133,0,0,1-1.387,3.281,5.487,5.487,0,0,1-3.74,1.211Zm0-2.109h.85q3.135,0,3.135-2.412,0-2.334-3.232-2.334h-.752ZM-20.64,27.636q0-6.306,2.939-10.066a7.836,7.836,0,0,1,6.375-3.4,7.836,7.836,0,0,1,6.375,3.4q2.939,3.76,2.939,10.237,0,6.46-2.939,10.22a7.822,7.822,0,0,1-6.357,3.4,7.912,7.912,0,0,1-6.392-3.4Q-20.64,34.267-20.64,27.636Zm3.914.017a15.636,15.636,0,0,0,1.521,7.3q1.521,2.854,3.879,2.854,2.341,0,3.879-2.854A14.91,14.91,0,0,0-5.908,27.79a15.013,15.013,0,0,0-1.538-7.178q-1.538-2.837-3.879-2.837-2.324,0-3.862,2.837A14.567,14.567,0,0,0-16.726,27.653ZM9.583,28.747v-3.4a6.935,6.935,0,0,0,3.4-.564A3.488,3.488,0,0,0,14.539,21.6a3.6,3.6,0,0,0-1.128-2.751,3.975,3.975,0,0,0-2.888-1.077,3.737,3.737,0,0,0-2.563.8,5.322,5.322,0,0,0-1.3,2.769H2.7a9.143,9.143,0,0,1,2.529-5.46,7.68,7.68,0,0,1,5.349-1.735A7.938,7.938,0,0,1,16.231,16.2a6.84,6.84,0,0,1,2.188,5.247,6.5,6.5,0,0,1-2.871,5.64,6.718,6.718,0,0,1,3.281,6.272,7.629,7.629,0,0,1-2.393,5.811A8.583,8.583,0,0,1,10.3,41.427a7.883,7.883,0,0,1-7.075-3.5,9.093,9.093,0,0,1-1.213-4.067H5.857a4.676,4.676,0,0,0,1.5,2.931,4.6,4.6,0,0,0,3.1,1.017,4.3,4.3,0,0,0,3.2-1.282,4.615,4.615,0,0,0,1.265-3.333,4.058,4.058,0,0,0-1.9-3.794A7.023,7.023,0,0,0,9.583,28.747Z" transform="translate(21.696 15.371)" fill="#70ceee"/>
</svg>
