<svg xmlns="http://www.w3.org/2000/svg" width="41.844" height="40.65" viewBox="0 0 41.844 40.65">
  <path id="パス_9225" data-name="パス 9225" d="M21.354.711H13.914L10.842-2.437A19.775,19.775,0,0,1-.076.711,20.426,20.426,0,0,1-13.914-4.57,18.941,18.941,0,0,1-20.49-19.424,19.551,19.551,0,0,1-14.27-34.2,20.034,20.034,0,0,1,0-39.939a20.11,20.11,0,0,1,13.381,5.027A19.707,19.707,0,0,1,20.49-19.145,19.115,19.115,0,0,1,14.879-5.611ZM5.078-15.514l5.688,5.662a13.42,13.42,0,0,0,3.758-9.674,14.513,14.513,0,0,0-4.189-10.588A14,14,0,0,0-.076-34.379a13.682,13.682,0,0,0-10.359,4.266,14.846,14.846,0,0,0-4.088,10.74A13.744,13.744,0,0,0-10.309-8.988,14.175,14.175,0,0,0-.279-4.824,13.832,13.832,0,0,0,6.652-6.576l-9.217-8.937Z" transform="translate(20.49 39.939)" fill="#70ceee"/>
</svg>
