<svg xmlns="http://www.w3.org/2000/svg" width="43.909" height="56.798" viewBox="0 0 43.909 56.798">
  <path id="パス_9186" data-name="パス 9186" d="M-12.419-12.832l-1.846,1.094a3.172,3.172,0,0,0-.986-1.172,2.3,2.3,0,0,0-1.26-.312,2.327,2.327,0,0,0-1.572.537,1.665,1.665,0,0,0-.625,1.328q0,1.1,1.641,1.777l1.5.615a6.421,6.421,0,0,1,2.686,1.812,4.083,4.083,0,0,1,.85,2.622,4.607,4.607,0,0,1-1.387,3.438A4.76,4.76,0,0,1-16.881.273,4.638,4.638,0,0,1-20.124-.889,5.351,5.351,0,0,1-21.7-4.16l2.3-.508a3.92,3.92,0,0,0,.547,1.836,2.369,2.369,0,0,0,2.051.977,2.38,2.38,0,0,0,1.768-.713,2.466,2.466,0,0,0,.7-1.807,2.535,2.535,0,0,0-.122-.806,2.044,2.044,0,0,0-.381-.674,3.044,3.044,0,0,0-.669-.576,6.444,6.444,0,0,0-.977-.513l-1.455-.605q-3.1-1.309-3.1-3.828a3.632,3.632,0,0,1,1.3-2.842,4.693,4.693,0,0,1,3.232-1.152A4.513,4.513,0,0,1-12.419-12.832Zm8.178-.107V0H-6.516V-12.939H-9.983v-2.139h9.2v2.139Zm14.409,0H4.123v3.623H9.992v2.139H4.123v5.039h6.045V0H1.848V-15.078h8.32Zm5.864,6.816V0H13.756V-15.078h2.578a11.628,11.628,0,0,1,2.861.264,3.837,3.837,0,0,1,1.719,1,4.291,4.291,0,0,1,1.3,3.2,4.133,4.133,0,0,1-1.387,3.281,5.487,5.487,0,0,1-3.74,1.211Zm0-2.109h.85q3.135,0,3.135-2.412,0-2.334-3.232-2.334h-.752ZM-20.324,27.636q0-6.306,2.939-10.066a7.836,7.836,0,0,1,6.375-3.4,7.836,7.836,0,0,1,6.375,3.4Q-1.7,21.33-1.7,27.807q0,6.46-2.939,10.22a7.822,7.822,0,0,1-6.357,3.4,7.912,7.912,0,0,1-6.392-3.4Q-20.324,34.267-20.324,27.636Zm3.914.017a15.636,15.636,0,0,0,1.521,7.3Q-13.368,37.8-11.01,37.8q2.341,0,3.879-2.854A14.91,14.91,0,0,0-5.592,27.79,15.013,15.013,0,0,0-7.13,20.612q-1.538-2.837-3.879-2.837-2.324,0-3.862,2.837A14.567,14.567,0,0,0-16.41,27.653Zm33.88,5.981h2.8v3.623h-2.8V41H13.488V37.257H.534L17.47,12.648Zm-3.982,0V24.8L7.4,33.634Z" transform="translate(21.696 15.371)" fill="#70ceee"/>
</svg>
