<svg xmlns="http://www.w3.org/2000/svg" width="333.381" height="52.813" viewBox="0 0 333.381 52.813">
  <path id="パス_9009" data-name="パス 9009" d="M-137.456-41.406H-156.8v11.594h18.781v6.844H-156.8V-6.844h19.344V0h-26.625V-48.25h26.625Zm13.92-6.844,13.344,33.438L-96.661-48.25h7.969L-110.349,3.625-131.505-48.25Zm75.715,7.188-5.906,3.5a10.151,10.151,0,0,0-3.156-3.75,7.363,7.363,0,0,0-4.031-1,7.446,7.446,0,0,0-5.031,1.719,5.328,5.328,0,0,0-2,4.25q0,3.531,5.25,5.688l4.813,1.969q5.875,2.375,8.594,5.8A13.066,13.066,0,0,1-46.571-14.5a14.742,14.742,0,0,1-4.437,11A15.232,15.232,0,0,1-62.1.875,14.841,14.841,0,0,1-72.478-2.844q-4.031-3.719-5.031-10.469l7.375-1.625q.5,4.25,1.75,5.875a7.579,7.579,0,0,0,6.563,3.125,7.615,7.615,0,0,0,5.656-2.281A7.892,7.892,0,0,0-53.915-14a8.113,8.113,0,0,0-.391-2.578,6.542,6.542,0,0,0-1.219-2.156,9.741,9.741,0,0,0-2.141-1.844,20.622,20.622,0,0,0-3.125-1.641l-4.656-1.937q-9.906-4.187-9.906-12.25A11.622,11.622,0,0,1-71.2-45.5a15.017,15.017,0,0,1,10.344-3.687Q-52.509-49.187-47.821-41.062ZM-28.87-23.875V0H-35.9V-23.875h-3v-6.562h3V-41.594h7.031v11.156H-23.4v6.563ZM6.3-30.437h7.062V0H6.3V-3.187A13.486,13.486,0,0,1-3.044.875,13.462,13.462,0,0,1-13.481-3.687a16.968,16.968,0,0,1-4.094-11.625,16.445,16.445,0,0,1,4.094-11.406,13.2,13.2,0,0,1,10.25-4.562A12.943,12.943,0,0,1,6.3-26.906ZM-10.387-15.312A10.6,10.6,0,0,0-8.044-8.187,7.676,7.676,0,0,0-1.981-5.406,8.069,8.069,0,0,0,4.331-8.094a10.407,10.407,0,0,0,2.406-7.062,10.407,10.407,0,0,0-2.406-7.062,7.956,7.956,0,0,0-6.25-2.719,7.773,7.773,0,0,0-6.062,2.75A10.137,10.137,0,0,0-10.387-15.312ZM24.158-30.437h7.031v2.719A13.427,13.427,0,0,1,34.626-30.5a7.883,7.883,0,0,1,3.625-.781,11.356,11.356,0,0,1,5.813,1.813l-3.219,6.438a6.713,6.713,0,0,0-3.906-1.437q-5.75,0-5.75,8.688V0H24.158Zm35.42,6.563V0H52.546V-23.875h-3v-6.562h3V-41.594h7.031v11.156h5.469v6.563ZM83.241,0V-48.25h7.25a31.742,31.742,0,0,1,7.719.75,11.6,11.6,0,0,1,4.906,2.531,13.135,13.135,0,0,1,3.219,4.594,13.9,13.9,0,0,1,1.219,5.625,11.4,11.4,0,0,1-3.969,8.781,11.66,11.66,0,0,1,6.063,4.594,12.956,12.956,0,0,1,2.25,7.563,12.851,12.851,0,0,1-4,9.563,13.129,13.129,0,0,1-5.406,3.344A31.446,31.446,0,0,1,94.272,0Zm7.281-27.531H92.8q4.063,0,5.953-1.8a6.97,6.97,0,0,0,1.891-5.3A6.645,6.645,0,0,0,98.71-39.8a8.076,8.076,0,0,0-5.625-1.766H90.522Zm0,20.688h4.5q4.937,0,7.25-1.937a6.7,6.7,0,0,0,2.438-5.312,6.805,6.805,0,0,0-2.344-5.25q-2.281-2.094-8.156-2.094H90.522Zm38.17-23.594V0h-7.031V-30.437ZM120.6-43.094a4.355,4.355,0,0,1,1.344-3.187,4.391,4.391,0,0,1,3.219-1.344,4.427,4.427,0,0,1,3.25,1.344,4.325,4.325,0,0,1,1.344,3.219,4.427,4.427,0,0,1-1.344,3.25,4.325,4.325,0,0,1-3.219,1.344,4.427,4.427,0,0,1-3.25-1.344A4.464,4.464,0,0,1,120.6-43.094ZM149.613-6.625h18.094V0H135.675l19.719-23.875H139.863v-6.562H169.3Z" transform="translate(164.081 49.188)" fill="#fff"/>
</svg>
