<svg xmlns="http://www.w3.org/2000/svg" width="153.884" height="19.079" viewBox="0 0 153.884 19.079">
  <path id="パス_9225" data-name="パス 9225" d="M-69.653-16.48c-.14,2.64.14,11.72-7.84,16.14a8.335,8.335,0,0,1,2,1.9,17.079,17.079,0,0,0,7.4-10.04c1.12,3.68,3.36,7.8,7.88,10.04a7.817,7.817,0,0,1,1.84-2.02c-7.46-3.5-8.46-12.12-8.62-14.88.02-.42.04-.82.06-1.14Zm22.16,9.4a13.085,13.085,0,0,1-1.76,2.58c-1.14-.72-2.3-1.4-3.34-1.94l-1.7,1.56c1.06.6,2.22,1.3,3.36,2.06A17.7,17.7,0,0,1-55.993.2a13.906,13.906,0,0,1,1.76,1.86,22.387,22.387,0,0,0,5.22-3.52,21.469,21.469,0,0,1,2.96,2.58l1.9-1.8a24.447,24.447,0,0,0-3.16-2.56,17.188,17.188,0,0,0,2.12-3.08Zm-6.5-2.1a15.912,15.912,0,0,0,2.02-2.68v1.68h11.54V-12.1h-11.4c.18-.3.36-.62.52-.94h12.7v-1.98h-11.82c.18-.48.34-.98.5-1.48l-2.48-.52a13.143,13.143,0,0,1-4.26,6.84,19.6,19.6,0,0,1,2.16,1.5l.18-.16v1.66h10.72c.12,5.12.7,8.94,3.62,8.94,1.54,0,1.96-1.06,2.14-3.56a9.632,9.632,0,0,1-1.54-1.48c-.04,1.62-.12,2.66-.42,2.68-1.16,0-1.42-3.78-1.38-8.58Zm20.74-5.02v2.78c.56-.04,1.64-.08,2.48-.08h8.98v8.28h-9.22c-.9,0-1.8-.06-2.5-.12V-.48c.66-.06,1.8-.12,2.58-.12h9.12c0,.38,0,.72-.02,1.04h2.9c-.04-.6-.08-1.66-.08-2.36V-12.28c0-.58.04-1.38.06-1.84-.34.02-1.18.04-1.76.04h-10.08C-31.473-14.08-32.513-14.12-33.253-14.2Zm22.12-1.14v2.58c.58-.04,1.44-.06,2.08-.06h7.66c.72,0,1.66.02,2.2.06v-2.58a18.856,18.856,0,0,1-2.16.1h-7.7A16.859,16.859,0,0,1-11.133-15.34Zm13.62,5.8-1.78-1.1a4.219,4.219,0,0,1-1.46.2h-9.9c-.62,0-1.48-.06-2.32-.12v2.6c.84-.08,1.84-.1,2.32-.1h9.66A8.677,8.677,0,0,1-3.053-4.6a13.49,13.49,0,0,1-6.92,3.5l1.98,2.26A14.976,14.976,0,0,0-.853-3.16,14.373,14.373,0,0,0,2.107-8.7,7.41,7.41,0,0,1,2.487-9.54Zm13.22-5.54-3.18-.66a14.554,14.554,0,0,1-.48,2.32c-.58,2.08-2.3,7.56-3.46,10.52-.18,0-.38.02-.54.02-.66.02-1.52.02-2.2.02L6.307.06c.64-.08,1.38-.18,1.88-.24,2.52-.26,8.58-.9,11.82-1.28.38.86.7,1.68.96,2.36l2.7-1.2a61.511,61.511,0,0,0-4.38-8.32l-2.5,1.02a24.175,24.175,0,0,1,2.1,3.66c-2.02.24-4.86.56-7.3.8,1-2.68,2.62-7.76,3.26-9.72C15.147-13.74,15.447-14.48,15.707-15.08Zm15.667,2.141V0H29.1V-12.939H25.632v-2.139h9.2v2.139Zm5.058,5.332a7.385,7.385,0,0,1,2.334-5.469,7.682,7.682,0,0,1,5.586-2.285,7.539,7.539,0,0,1,5.527,2.3A7.534,7.534,0,0,1,52.194-7.52,7.414,7.414,0,0,1,49.869-2,7.779,7.779,0,0,1,44.235.273,7.78,7.78,0,0,1,38.99-1.748,7.409,7.409,0,0,1,36.432-7.607Zm2.295.029a5.45,5.45,0,0,0,1.68,4.111,5.391,5.391,0,0,0,3.857,1.611,5.427,5.427,0,0,0,4-1.641A5.553,5.553,0,0,0,49.9-7.539a5.525,5.525,0,0,0-1.611-4.043,5.319,5.319,0,0,0-3.965-1.641,5.372,5.372,0,0,0-3.975,1.641A5.439,5.439,0,0,0,38.727-7.578Zm19.4,1.455V0H55.855V-15.078h2.578a11.628,11.628,0,0,1,2.861.264,3.837,3.837,0,0,1,1.719,1,4.291,4.291,0,0,1,1.3,3.2,4.133,4.133,0,0,1-1.387,3.281,5.487,5.487,0,0,1-3.74,1.211Zm0-2.109h.85q3.135,0,3.135-2.412,0-2.334-3.232-2.334H58.13Zm18.036-4.717H71.518l-.742,2.5q.166-.02.317-.029t.278-.01A4.745,4.745,0,0,1,74.975-9a5.232,5.232,0,0,1,1.416,3.779A5.216,5.216,0,0,1,74.79-1.3,5.579,5.579,0,0,1,70.756.244,5.312,5.312,0,0,1,66.03-2.568l1.719-1.455a5.327,5.327,0,0,0,1.436,1.709,3.084,3.084,0,0,0,1.768.488,3.069,3.069,0,0,0,2.295-.957,3.365,3.365,0,0,0,.928-2.393,3.2,3.2,0,0,0-.918-2.363,3.064,3.064,0,0,0-2.295-.947,3.347,3.347,0,0,0-2.646,1.338h-.752l2.373-7.93h6.23Z" transform="translate(77.493 17.02)" fill="#fff"/>
</svg>
