<svg xmlns="http://www.w3.org/2000/svg" width="41.844" height="40.65"><path data-name="パス 9225" d="M41.844 40.65h-7.44l-3.072-3.148a19.775 19.775 0 01-10.918 3.148 20.426 20.426 0 01-13.838-5.281A18.941 18.941 0 010 20.515 19.551 19.551 0 016.22 5.739 20.034 20.034 0 0120.49 0a20.11 20.11 0 0113.381 5.027 19.707 19.707 0 017.109 15.767 19.115 19.115 0 01-5.611 13.534zM25.568 24.425l5.688 5.662a13.42 13.42 0 003.758-9.674 14.513 14.513 0 00-4.189-10.588A14 14 0 0020.414 5.56a13.682 13.682 0 00-10.359 4.266 14.846 14.846 0 00-4.088 10.74 13.744 13.744 0 004.214 10.385 14.175 14.175 0 0010.03 4.164 13.832 13.832 0 006.931-1.752l-9.217-8.937z" fill="#70ceee"/></svg>