<svg xmlns="http://www.w3.org/2000/svg" width="333.381" height="52.813"><path data-name="パス 9009" d="M26.625 7.782H7.281v11.594h18.781v6.844H7.281v16.124h19.344v6.844H0V.938h26.625zM40.545.938l13.344 33.438L67.42.938h7.969L53.732 52.813 32.576.938zm75.715 7.188l-5.906 3.5a10.151 10.151 0 00-3.156-3.75 7.363 7.363 0 00-4.031-1 7.446 7.446 0 00-5.031 1.719 5.328 5.328 0 00-2 4.25q0 3.531 5.25 5.688l4.813 1.969q5.875 2.375 8.594 5.8a13.066 13.066 0 012.717 8.386 14.742 14.742 0 01-4.437 11 15.232 15.232 0 01-11.092 4.375 14.841 14.841 0 01-10.378-3.719q-4.031-3.719-5.031-10.469l7.375-1.625q.5 4.25 1.75 5.875a7.579 7.579 0 006.563 3.125 7.615 7.615 0 005.656-2.281 7.892 7.892 0 002.25-5.781 8.113 8.113 0 00-.391-2.578 6.542 6.542 0 00-1.219-2.156 9.741 9.741 0 00-2.141-1.844 20.622 20.622 0 00-3.125-1.641l-4.656-1.937q-9.906-4.187-9.906-12.25a11.622 11.622 0 014.153-9.094A15.017 15.017 0 01103.225.001q8.347 0 13.035 8.125zm18.951 17.187v23.875h-7.03V25.313h-3v-6.562h3V7.594h7.031V18.75h5.469v6.563zm35.17-6.562h7.062v30.437h-7.062v-3.187a13.486 13.486 0 01-9.344 4.062 13.462 13.462 0 01-10.437-4.562 16.968 16.968 0 01-4.094-11.625A16.445 16.445 0 01150.6 22.47a13.2 13.2 0 0110.25-4.562 12.943 12.943 0 019.531 4.374zm-16.687 15.125a10.6 10.6 0 002.343 7.125 7.676 7.676 0 006.063 2.781 8.069 8.069 0 006.312-2.688 10.407 10.407 0 002.406-7.062 10.407 10.407 0 00-2.406-7.062 7.956 7.956 0 00-6.25-2.719 7.773 7.773 0 00-6.062 2.75 10.137 10.137 0 00-2.406 6.875zm34.545-15.125h7.031v2.719a13.427 13.427 0 013.437-2.782 7.883 7.883 0 013.625-.781 11.356 11.356 0 015.813 1.813l-3.219 6.438a6.713 6.713 0 00-3.906-1.437q-5.75 0-5.75 8.688v15.779h-7.031zm35.42 6.563v23.874h-7.032V25.313h-3v-6.562h3V7.594h7.031V18.75h5.469v6.563zm23.663 23.874V.938h7.25a31.742 31.742 0 017.719.75 11.6 11.6 0 014.906 2.531 13.135 13.135 0 013.219 4.594 13.9 13.9 0 011.219 5.625 11.4 11.4 0 01-3.969 8.781 11.66 11.66 0 016.063 4.594 12.956 12.956 0 012.25 7.563 12.851 12.851 0 01-4 9.563 13.129 13.129 0 01-5.406 3.344 31.446 31.446 0 01-8.22.905zm7.281-27.531h2.278q4.063 0 5.953-1.8a6.97 6.97 0 001.891-5.3 6.645 6.645 0 00-1.934-5.169 8.076 8.076 0 00-5.625-1.766h-2.563zm0 20.688h4.5q4.937 0 7.25-1.937a6.7 6.7 0 002.438-5.312 6.805 6.805 0 00-2.344-5.25q-2.281-2.094-8.156-2.094h-3.688zm38.17-23.594v30.437h-7.031V18.751zm-8.092-12.657a4.355 4.355 0 011.344-3.187 4.391 4.391 0 013.219-1.344 4.427 4.427 0 013.25 1.344 4.325 4.325 0 011.344 3.219 4.427 4.427 0 01-1.344 3.25 4.325 4.325 0 01-3.219 1.344 4.427 4.427 0 01-3.25-1.344 4.464 4.464 0 01-1.344-3.282zm29.013 36.469h18.094v6.625h-32.032l19.719-23.875h-15.531v-6.562h29.437z" fill="#fff"/></svg>