<svg xmlns="http://www.w3.org/2000/svg" width="153.884" height="19.079"><path data-name="パス 9225" d="M7.84.54C7.7 3.18 7.98 12.26 0 16.68a8.335 8.335 0 012 1.9A17.079 17.079 0 009.4 8.54c1.12 3.68 3.36 7.8 7.88 10.04a7.817 7.817 0 011.84-2.02c-7.46-3.5-8.46-12.12-8.62-14.88.02-.42.04-.82.06-1.14zM30 9.94a13.085 13.085 0 01-1.76 2.58c-1.14-.72-2.3-1.4-3.34-1.94l-1.7 1.56c1.06.6 2.22 1.3 3.36 2.06a17.7 17.7 0 01-5.06 3.02 13.906 13.906 0 011.76 1.86 22.387 22.387 0 005.22-3.52 21.469 21.469 0 012.96 2.58l1.9-1.8a24.447 24.447 0 00-3.16-2.56 17.188 17.188 0 002.12-3.08zm-6.5-2.1a15.912 15.912 0 002.02-2.68v1.68h11.54V4.92h-11.4c.18-.3.36-.62.52-.94h12.7V2H27.06c.18-.48.34-.98.5-1.48L25.08 0a13.143 13.143 0 01-4.26 6.84 19.6 19.6 0 012.16 1.5l.18-.16v1.66h10.72c.12 5.12.7 8.94 3.62 8.94 1.54 0 1.96-1.06 2.14-3.56a9.632 9.632 0 01-1.54-1.48c-.04 1.62-.12 2.66-.42 2.68-1.16 0-1.42-3.78-1.38-8.58zm20.74-5.02V5.6c.56-.04 1.64-.08 2.48-.08h8.98v8.28h-9.22c-.9 0-1.8-.06-2.5-.12v2.86c.66-.06 1.8-.12 2.58-.12h9.12c0 .38 0 .72-.02 1.04h2.9c-.04-.6-.08-1.66-.08-2.36V4.74c0-.58.04-1.38.06-1.84-.34.02-1.18.04-1.76.04H46.7c-.68 0-1.72-.04-2.46-.12zm22.12-1.14v2.58c.58-.04 1.44-.06 2.08-.06h7.66c.72 0 1.66.02 2.2.06V1.68a18.856 18.856 0 01-2.16.1h-7.7a16.859 16.859 0 01-2.08-.1zm13.62 5.8l-1.78-1.1a4.219 4.219 0 01-1.46.2h-9.9c-.62 0-1.48-.06-2.32-.12v2.6c.84-.08 1.84-.1 2.32-.1h9.66a8.677 8.677 0 01-2.06 3.46 13.49 13.49 0 01-6.92 3.5l1.98 2.26a14.976 14.976 0 007.14-4.32 14.373 14.373 0 002.96-5.54 7.41 7.41 0 01.38-.84zM93.2 1.94l-3.18-.66a14.554 14.554 0 01-.48 2.32c-.58 2.08-2.3 7.56-3.46 10.52-.18 0-.38.02-.54.02-.66.02-1.52.02-2.2.02l.46 2.92c.64-.08 1.38-.18 1.88-.24 2.52-.26 8.58-.9 11.82-1.28.38.86.7 1.68.96 2.36l2.7-1.2a61.511 61.511 0 00-4.38-8.32l-2.5 1.02a24.175 24.175 0 012.1 3.66c-2.02.24-4.86.56-7.3.8 1-2.68 2.62-7.76 3.26-9.72.3-.88.6-1.62.86-2.22zm15.667 2.141V17.02h-2.274V4.081h-3.468V1.942h9.2v2.139zm5.058 5.332a7.385 7.385 0 012.334-5.469 7.682 7.682 0 015.586-2.285 7.539 7.539 0 015.527 2.3 7.534 7.534 0 012.315 5.541 7.414 7.414 0 01-2.325 5.52 7.779 7.779 0 01-5.634 2.273 7.78 7.78 0 01-5.245-2.021 7.409 7.409 0 01-2.558-5.859zm2.295.029a5.45 5.45 0 001.68 4.111 5.391 5.391 0 003.857 1.611 5.427 5.427 0 004-1.641 5.553 5.553 0 001.636-4.042 5.525 5.525 0 00-1.611-4.043 5.319 5.319 0 00-3.965-1.641 5.372 5.372 0 00-3.975 1.641 5.439 5.439 0 00-1.622 4.004zm19.4 1.455v6.123h-2.272V1.942h2.578a11.628 11.628 0 012.861.264 3.837 3.837 0 011.719 1 4.291 4.291 0 011.3 3.2 4.133 4.133 0 01-1.387 3.281 5.487 5.487 0 01-3.74 1.211zm0-2.109h.85q3.135 0 3.135-2.412 0-2.334-3.232-2.334h-.75zm18.036-4.717h-4.645l-.742 2.5q.166-.02.317-.029t.278-.01a4.745 4.745 0 013.604 1.488 5.232 5.232 0 011.416 3.779 5.216 5.216 0 01-1.601 3.921 5.579 5.579 0 01-4.034 1.544 5.312 5.312 0 01-4.726-2.812l1.719-1.455a5.327 5.327 0 001.436 1.709 3.084 3.084 0 001.768.488 3.069 3.069 0 002.295-.957 3.365 3.365 0 00.928-2.393 3.2 3.2 0 00-.918-2.363 3.064 3.064 0 00-2.295-.947 3.347 3.347 0 00-2.646 1.338h-.752l2.373-7.93h6.23z" fill="#fff"/></svg>