<svg xmlns="http://www.w3.org/2000/svg" width="43.909" height="56.798"><path data-name="パス 9186" d="M9.277 2.539L7.431 3.633a3.172 3.172 0 00-.986-1.172 2.3 2.3 0 00-1.26-.312 2.327 2.327 0 00-1.572.537 1.665 1.665 0 00-.625 1.328q0 1.1 1.641 1.777l1.5.615a6.421 6.421 0 012.686 1.812 4.083 4.083 0 01.85 2.622 4.607 4.607 0 01-1.387 3.438 4.76 4.76 0 01-3.463 1.366 4.638 4.638 0 01-3.243-1.162 5.351 5.351 0 01-1.576-3.271l2.3-.508a3.92 3.92 0 00.547 1.836 2.369 2.369 0 002.051.977 2.38 2.38 0 001.768-.713 2.466 2.466 0 00.7-1.807 2.535 2.535 0 00-.122-.806 2.044 2.044 0 00-.381-.674 3.044 3.044 0 00-.669-.576 6.444 6.444 0 00-.977-.513l-1.455-.605q-3.1-1.309-3.1-3.828a3.632 3.632 0 011.3-2.842A4.693 4.693 0 015.19 0a4.513 4.513 0 014.087 2.539zm8.178-.107v12.939H15.18V2.432h-3.467V.293h9.2v2.139zm14.409 0h-6.045v3.623h5.869v2.139h-5.869v5.039h6.045v2.138h-8.32V.293h8.32zm5.864 6.816v6.123h-2.276V.293h2.578a11.628 11.628 0 012.861.264 3.837 3.837 0 011.719 1 4.291 4.291 0 011.3 3.2 4.133 4.133 0 01-1.387 3.281 5.487 5.487 0 01-3.74 1.211zm0-2.109h.85q3.135 0 3.135-2.412 0-2.334-3.232-2.334h-.752zM1.372 43.007q0-6.306 2.939-10.066a7.836 7.836 0 016.375-3.4 7.836 7.836 0 016.375 3.4q2.935 3.76 2.935 10.237 0 6.46-2.939 10.22a7.822 7.822 0 01-6.357 3.4 7.912 7.912 0 01-6.392-3.4q-2.936-3.76-2.936-10.391zm3.914.017a15.636 15.636 0 001.521 7.3q1.521 2.847 3.879 2.847 2.341 0 3.879-2.854a14.91 14.91 0 001.539-7.156 15.013 15.013 0 00-1.538-7.178q-1.538-2.837-3.879-2.837-2.324 0-3.862 2.837a14.567 14.567 0 00-1.539 7.041zm33.88 5.981h2.8v3.623h-2.8v3.743h-3.982v-3.743H22.23l16.936-24.609zm-3.982 0v-8.834l-6.088 8.834z" fill="#70ceee"/></svg>