<svg xmlns="http://www.w3.org/2000/svg" width="28" height="20"><defs><clipPath id="a"><path data-name="長方形 23443" fill="#fff" d="M0 0h16.199v10.525H0z"/></clipPath></defs><g data-name="グループ 12329"><path data-name="長方形 23442" d="M4 0h24v16a4 4 0 01-4 4H0V4a4 4 0 014-4z" fill="#dbba2e"/><g data-name="グループ 12296"><path data-name="パス 9185" d="M11.395 11.809L7.573 8.946l2.236 6.856h8.377l2.235-6.856-3.822 2.863-2.6-3.879z" fill="#fff"/><g data-name="グループ 12295"><g data-name="グループ 12294" clip-path="url(#a)" fill="#fff" fill-rule="evenodd" transform="translate(6 5.278)"><path data-name="パス 9186" d="M.964 3.059a.964.964 0 10-.963-.964.966.966 0 00.964.964"/><path data-name="パス 9187" d="M7.997 1.927a.964.964 0 10-.963-.964.966.966 0 00.963.964"/><path data-name="パス 9188" d="M15.235 3.262a.964.964 0 10-.963-.963.966.966 0 00.963.963"/></g></g></g></g></svg>